<?xml version="1.0" encoding="UTF-8"?>
<svg width="184px" height="214px" viewBox="0 0 184 214" version="1.1" xmlns="http://www.w3.org/2000/svg" xmlns:xlink="http://www.w3.org/1999/xlink">
    <!-- Generator: Sketch 55.1 (78136) - https://sketchapp.com -->
    <title>RefPrintLogo</title>
    <desc>Created with Sketch.</desc>
    <defs>
        <linearGradient x1="50%" y1="0%" x2="50%" y2="100%" id="linearGradient-1">
            <stop stop-color="#C9C9C9" offset="0%"></stop>
            <stop stop-color="#7D7D7D" offset="100%"></stop>
        </linearGradient>
    </defs>
    <g id="Page-1" stroke="none" stroke-width="1" fill="none" fill-rule="evenodd">
        <g id="RefPrint" transform="translate(2.000000, 2.000000)">
            <g>
                <path d="M0,0 L180,0 L180,210 L0,210 L0,0 Z M0,179 L180,179 L0,179 Z" id="Combined-Shape" stroke="url(#linearGradient-1)" stroke-width="4" fill="#FFFFFF"></path>
                <path d="M73.1090382,58.3653846 L73.1090382,88.1923077 L90.8209606,88.1923077 C95.9006317,88.1923077 99.8551409,86.8738844 102.684607,84.2369983 C105.514073,81.6001122 106.928784,77.9474314 106.928784,73.2788462 C106.928784,68.7399439 105.458375,65.1196832 102.517513,62.4179557 C99.576651,59.7162281 95.6110023,58.3653846 90.6204483,58.3653846 L73.1090382,58.3653846 Z M72.9892665,102.60499 L72.9892665,137 L53,137 L53,43 L92.4490161,43 C103.348295,43 111.831514,45.6599411 117.898927,50.979903 C123.966339,56.2998649 127,63.6282739 127,72.96535 C127,79.0887347 125.466622,84.5497566 122.399821,89.3485793 C119.33302,94.1474021 115.085895,97.5890402 109.658318,99.6735967 C106.039934,101.063301 99.2665293,102.040432 89.3381038,102.60499 L72.9892665,102.60499 Z" id="Combined-Shape" fill="#0073B4" fill-rule="nonzero"></path>
                <g transform="translate(11.000000, 185.000000)" fill-rule="nonzero">
                    <path d="M2.515625,3.33544922 L2.515625,9.00683594 L6.13183594,9.00683594 C7.1051481,9.00683594 7.8594537,8.7597681 8.39477539,8.265625 C8.93009708,7.7714819 9.19775391,7.07145635 9.19775391,6.16552734 C9.19775391,5.28205938 8.91886672,4.58952074 8.36108398,4.08789062 C7.80330125,3.58626051 7.03776528,3.33544922 6.06445312,3.33544922 L2.515625,3.33544922 Z M2.515625,11.1518555 L2.515625,17.3286133 L0,17.3286133 L0,1.12304688 L6.41259766,1.12304688 C8.04476728,1.12304688 9.34748862,1.57413286 10.3208008,2.47631836 C11.2941129,3.37850386 11.7807617,4.58951063 11.7807617,6.109375 C11.7807617,7.20247942 11.5018745,8.1626749 10.9440918,8.98999023 C10.3863091,9.81730557 9.61702964,10.3994124 8.63623047,10.7363281 L12.2749023,17.3286133 L9.36621094,17.3286133 L6.06445312,11.1518555 L2.515625,11.1518555 Z M31.8881836,7.78271484 C31.3491184,7.20621457 30.634119,6.91796875 29.7431641,6.91796875 C28.8522091,6.91796875 28.1184925,7.20621457 27.5419922,7.78271484 C26.9654919,8.35921512 26.643555,9.12662281 26.5761719,10.0849609 L32.7529297,10.0849609 C32.7229816,9.1191358 32.4347358,8.35172811 31.8881836,7.78271484 Z M32.7416992,14.0268555 L35.0664062,14.0268555 C34.7893866,15.1274469 34.1848191,15.9921844 33.2526855,16.6210938 C32.320552,17.2500031 31.1582101,17.5644531 29.765625,17.5644531 C28.0136631,17.5644531 26.634201,17.0010636 25.6271973,15.8742676 C24.6201935,14.7474716 24.1166992,13.207041 24.1166992,11.2529297 C24.1166992,9.29881835 24.6258087,7.74528571 25.644043,6.59228516 C26.6622772,5.4392846 28.0323807,4.86279297 29.7543945,4.86279297 C31.4539473,4.86279297 32.788488,5.40933698 33.7580566,6.50244141 C34.7276253,7.59554583 35.2124023,9.10415705 35.2124023,11.0283203 L35.2124023,11.8706055 L26.5761719,11.8706055 L26.5761719,12.0053711 C26.613607,13.0835015 26.9243135,13.9370086 27.5083008,14.565918 C28.0922881,15.1948274 28.8671827,15.5092773 29.8330078,15.5092773 C31.3079501,15.5092773 32.2775042,15.0151417 32.7416992,14.0268555 Z M48.9633789,17.3286133 L48.9633789,7.1875 L46.953125,7.1875 L46.953125,5.15478516 L48.9633789,5.15478516 L48.9633789,3.94189453 C48.9633789,2.71402381 49.2778289,1.8230822 49.9067383,1.26904297 C50.5356477,0.71500374 51.4977149,0.437988281 52.7929688,0.437988281 C53.2421897,0.437988281 53.6951475,0.475422803 54.1518555,0.550292969 L54.1518555,2.48193359 C53.8074527,2.42203746 53.4480813,2.39208984 53.0737305,2.39208984 C51.9282169,2.39208984 51.3554688,2.95360767 51.3554688,4.07666016 L51.3554688,5.15478516 L54.0620117,5.15478516 L54.0620117,7.1875 L51.3779297,7.1875 L51.3779297,17.3286133 L48.9633789,17.3286133 Z" id="Ref" fill="#0073B4"></path>
                    <path d="M67.0942383,1.12304688 L73.4394531,1.12304688 C75.0267006,1.12304688 76.3144482,1.62279774 77.3027344,2.62231445 C78.2910206,3.62183117 78.7851562,4.92268079 78.7851562,6.52490234 C78.7851562,8.10466285 78.2797902,9.39053866 77.269043,10.3825684 C76.2582957,11.3745981 74.9555744,11.8706055 73.3608398,11.8706055 L69.6098633,11.8706055 L69.6098633,17.3286133 L67.0942383,17.3286133 L67.0942383,1.12304688 Z M69.6098633,3.34667969 L69.6098633,9.65820312 L72.7768555,9.65820312 C73.8624729,9.65820312 74.7066213,9.38680284 75.3093262,8.84399414 C75.912031,8.30118544 76.2133789,7.52816257 76.2133789,6.52490234 C76.2133789,5.49918107 75.9176462,4.71305612 75.3261719,4.16650391 C74.7346976,3.61995169 73.8849339,3.34667969 72.7768555,3.34667969 L69.6098633,3.34667969 Z M91.7387695,17.3286133 L91.7387695,5.09863281 L94.0634766,5.09863281 L94.0634766,6.97412109 L94.2431641,6.97412109 C94.4153654,6.36767275 94.8084279,5.86979361 95.4223633,5.48046875 C96.0362986,5.09114389 96.7400676,4.89648438 97.5336914,4.89648438 C97.9829124,4.89648438 98.3385404,4.93017544 98.6005859,4.99755859 L98.6005859,7.37841797 C98.3235663,7.28108675 97.8780955,7.23242188 97.2641602,7.23242188 C96.3507441,7.23242188 95.6039254,7.49820698 95.0236816,8.02978516 C94.4434379,8.56136333 94.1533203,9.25390198 94.1533203,10.1074219 L94.1533203,17.3286133 L91.7387695,17.3286133 Z M111.037598,17.3286133 L111.037598,5.09863281 L113.440918,5.09863281 L113.440918,17.3286133 L111.037598,17.3286133 Z M113.351074,2.53808594 C113.059081,2.81510555 112.688479,2.95361328 112.239258,2.95361328 C111.790037,2.95361328 111.417563,2.81323383 111.121826,2.5324707 C110.826089,2.25170758 110.678223,1.9016948 110.678223,1.48242187 C110.678223,1.06314895 110.826089,0.711264443 111.121826,0.426757812 C111.417563,0.142251182 111.790037,0 112.239258,0 C112.688479,0 113.060952,0.142251182 113.356689,0.426757812 C113.652427,0.711264443 113.800293,1.06314895 113.800293,1.48242187 C113.800293,1.9016948 113.650555,2.25357931 113.351074,2.53808594 Z M126.989746,17.3286133 L126.989746,5.09863281 L129.314453,5.09863281 L129.314453,7.04150391 L129.494141,7.04150391 C129.793621,6.3601854 130.282142,5.82674346 130.959717,5.44116211 C131.637292,5.05558075 132.436519,4.86279297 133.357422,4.86279297 C134.720059,4.86279297 135.771969,5.25772717 136.513184,6.04760742 C137.254398,6.83748767 137.625,7.95865159 137.625,9.41113281 L137.625,17.3286133 L135.210449,17.3286133 L135.210449,10.0175781 C135.210449,8.05597978 134.319508,7.07519531 132.537598,7.07519531 C131.564285,7.07519531 130.79875,7.35221077 130.240967,7.90625 C129.683184,8.46028923 129.404297,9.21646656 129.404297,10.1748047 L129.404297,17.3286133 L126.989746,17.3286133 Z M151.870117,2.13378906 L154.284668,2.13378906 L154.284668,5.15478516 L157.024902,5.15478516 L157.024902,7.1875 L154.284668,7.1875 L154.284668,13.4765625 C154.284668,14.1129589 154.423176,14.5790187 154.700195,14.8747559 C154.977215,15.170493 155.415199,15.3183594 156.01416,15.3183594 C156.238771,15.3183594 156.538247,15.2996421 156.912598,15.262207 L156.912598,17.2724609 C156.448403,17.3548181 156.017906,17.3959961 155.621094,17.3959961 C154.280918,17.3959961 153.320722,17.1414413 152.740479,16.6323242 C152.160235,16.1232071 151.870117,15.2771869 151.870117,14.0942383 L151.870117,7.1875 L149.859863,7.1875 L149.859863,5.15478516 L151.870117,5.15478516 L151.870117,2.13378906 Z" id="Print" fill="#00A3FF"></path>
                </g>
                <path d="M111.889439,101 L132,137 L109.375619,137 L92,104.215577 C99.7543425,103.956676 106.384156,102.884817 111.889439,101 Z" id="R" fill="#00A3FF" fill-rule="nonzero"></path>
            </g>
        </g>
    </g>
</svg>